[
  {
    "duration_time": "0.128000",
    "pts_time": "0.000000"
  },
  {
    "duration_time": "0.128000",
    "pts_time": "0.128000"
  },
  {
    "duration_time": "0.128000",
    "pts_time": "0.256000"
  },
  {
    "duration_time": "0.128000",
    "pts_time": "0.384000"
  },
  {
    "duration_time": "0.128000",
    "pts_time": "0.512000"
  },
  {
    "duration_time": "0.128000",
    "pts_time": "0.640000"
  },
  {
    "duration_time": "0.128000",
    "pts_time": "0.768000"
  },
  {
    "duration_time": "0.128000",
    "pts_time": "0.896000"
  },
  {
    "duration_time": "0.128000",
    "pts_time": "1.024000"
  },
  {
    "duration_time": "0.128000",
    "pts_time": "1.152000"
  },
  {
    "duration_time": "0.128000",
    "pts_time": "1.280000"
  },
  {
    "duration_time": "0.128000",
    "pts_time": "1.408000"
  },
  {
    "duration_time": "0.128000",
    "pts_time": "1.536000"
  },
  {
    "duration_time": "0.128000",
    "pts_time": "1.664000"
  },
  {
    "duration_time": "0.128000",
    "pts_time": "1.792000"
  },
  {
    "duration_time": "0.128000",
    "pts_time": "1.920000"
  },
  {
    "duration_time": "0.128000",
    "pts_time": "2.048000"
  },
  {
    "duration_time": "0.128000",
    "pts_time": "2.176000"
  },
  {
    "duration_time": "0.128000",
    "pts_time": "2.304000"
  },
  {
    "duration_time": "0.128000",
    "pts_time": "2.432000"
  },
  {
    "duration_time": "0.128000",
    "pts_time": "2.560000"
  },
  {
    "duration_time": "0.128000",
    "pts_time": "2.688000"
  },
  {
    "duration_time": "0.128000",
    "pts_time": "2.816000"
  },
  {
    "duration_time": "0.128000",
    "pts_time": "2.944000"
  },
  {
    "duration_time": "0.128000",
    "pts_time": "3.072000"
  },
  {
    "duration_time": "0.128000",
    "pts_time": "3.200000"
  },
  {
    "duration_time": "0.128000",
    "pts_time": "3.328000"
  },
  {
    "duration_time": "0.128000",
    "pts_time": "3.456000"
  },
  {
    "duration_time": "0.128000",
    "pts_time": "3.584000"
  },
  {
    "duration_time": "0.128000",
    "pts_time": "3.712000"
  },
  {
    "duration_time": "0.128000",
    "pts_time": "3.840000"
  },
  {
    "duration_time": "0.032000",
    "pts_time": "3.968000"
  }
]
